<?xml version="1.0" standalone="no"?>
<!DOCTYPE svg PUBLIC "-//W3C//DTD SVG 20010904//EN"
 "http://www.w3.org/TR/2001/REC-SVG-20010904/DTD/svg10.dtd">
<svg version="1.0" xmlns="http://www.w3.org/2000/svg"
 width="3610.000000pt" height="3350.000000pt" viewBox="0 0 3610.000000 3350.000000"
 preserveAspectRatio="xMidYMid meet">

<g transform="translate(0.000000,3350.000000) scale(0.100000,-0.100000)"
fill="#000000" stroke="none">
<path d="M17640 32240 c-204 -8 -383 -17 -485 -25 -33 -3 -94 -7 -135 -10
-104 -7 -188 -14 -305 -26 -55 -5 -125 -12 -155 -15 -125 -12 -398 -46 -595
-75 -1905 -275 -3754 -920 -5416 -1889 -1536 -896 -2886 -2037 -4029 -3405
-1946 -2330 -3146 -5193 -3439 -8205 -18 -189 -24 -252 -36 -415 -40 -540 -42
-1551 -5 -2093 13 -188 51 -603 65 -720 3 -20 12 -93 20 -162 286 -2291 1092
-4482 2361 -6412 881 -1341 1955 -2521 3219 -3535 1676 -1344 3660 -2330 5745
-2853 499 -125 844 -194 1475 -295 278 -45 945 -116 1225 -130 63 -4 128 -8
145 -10 194 -25 1496 -25 1725 0 19 2 87 6 150 10 195 11 640 51 775 70 17 3
71 9 120 15 50 6 104 13 120 15 695 95 1308 219 1980 401 1458 395 2919 1049
4215 1886 2089 1351 3821 3202 5034 5380 1023 1838 1655 3899 1841 5998 40
453 47 629 51 1240 4 697 -2 868 -52 1475 -6 81 -53 508 -59 545 -2 14 -9 66
-15 115 -59 483 -193 1176 -336 1735 -580 2270 -1662 4342 -3198 6129 -480
558 -1077 1153 -1641 1636 -1776 1520 -3889 2612 -6150 3179 -957 240 -1908
381 -2935 436 -254 14 -1031 20 -1280 10z m684 -3959 c-5 -4 -67 -29 -139 -56
-473 -175 -1051 -463 -1519 -758 -565 -356 -1020 -720 -1507 -1206 -334 -335
-575 -613 -828 -953 -791 -1069 -1319 -2285 -1556 -3581 -54 -297 -107 -727
-120 -987 -4 -63 -8 -131 -10 -150 -5 -45 -5 -776 -1 -815 2 -16 7 -88 11
-160 3 -71 8 -143 10 -160 2 -16 11 -102 20 -190 221 -2213 1351 -4307 3100
-5743 1244 -1022 2800 -1693 4364 -1882 91 -11 180 -22 196 -25 17 -2 68 -7
115 -10 47 -4 96 -9 110 -11 156 -25 1205 -24 1335 1 11 2 58 6 105 10 47 3
144 12 215 20 1620 185 3150 826 4425 1854 433 349 942 859 1295 1296 547 677
1008 1473 1321 2278 31 78 62 158 70 177 13 31 14 -7 10 -355 -3 -214 -7 -403
-10 -420 -2 -16 -7 -79 -10 -140 -15 -267 -61 -676 -116 -1015 -257 -1581
-846 -3081 -1730 -4406 -648 -970 -1451 -1843 -2360 -2565 -1439 -1144 -3122
-1910 -4930 -2243 -309 -57 -776 -120 -1040 -140 -41 -4 -127 -11 -190 -16
-187 -16 -485 -25 -800 -25 -276 0 -664 10 -720 19 -14 3 -72 7 -130 11 -58 3
-118 8 -135 10 -16 2 -66 7 -110 10 -184 15 -542 63 -825 112 -879 151 -1789
427 -2630 799 -199 88 -620 296 -825 409 -1842 1012 -3371 2528 -4397 4360
-836 1493 -1320 3176 -1405 4885 -16 317 -9 1092 13 1367 20 259 48 542 69
687 2 17 11 81 20 141 47 331 122 714 210 1070 570 2312 1868 4381 3709 5914
1673 1394 3718 2270 5876 2516 286 32 692 62 945 68 256 6 507 5 499 -2z"/>
</g>
</svg>
